<?xml version="1.0" encoding="UTF-8"?>
<svg id="Calque_1" data-name="Calque 1" xmlns="http://www.w3.org/2000/svg" viewBox="0 0 743.51 225.33">
  <defs>
    <style>
      .cls-1 {
        fill: #ffffff;
        stroke-width: 0px;
      }
    </style>
  </defs>
  <g>
    <path class="cls-1" d="M111.2,152.88c-2.36-.78-4.9.5-5.69,2.86-1.51,4.56-4.32,8.64-8.05,11.76-3.73-3.11-6.55-7.2-8.05-11.76-.78-2.36-3.32-3.64-5.69-2.86-2.36.78-3.64,3.33-2.86,5.69,2.46,7.43,7.48,13.93,14.13,18.28.75.49,1.61.74,2.47.74s1.72-.25,2.47-.74c6.65-4.36,11.67-10.85,14.13-18.28.78-2.36-.5-4.9-2.86-5.69Z"/>
    <path class="cls-1" d="M243.55,97.01c-.6-1.85-2.33-3.11-4.28-3.11h0l-45.3.05-13.95-43.09c-.6-1.86-2.33-3.11-4.28-3.11s-3.68,1.26-4.28,3.11l-14.96,46.21c-.77,2.36.53,4.9,2.9,5.67,2.36.77,4.9-.53,5.67-2.9l10.68-32.99,10.68,32.99c.6,1.86,2.33,3.11,4.28,3.11h0l34.67-.04-28.07,20.35c-1.58,1.15-2.24,3.18-1.64,5.04l10.75,32.96-28.03-20.41c-1.58-1.15-3.72-1.15-5.3,0l-28.03,20.41,10.73-32.89.24-.67c.03-.09.06-.19.09-.28.1-.34,2.41-8.46-.3-17.08-3.08-9.78-12.78-16.59-23.66-16.54-4.8.02-9.27.97-13.26,2.78,1.58-6,2.39-11.42,2.39-15.09,0-21.15-20.44-35.18-21.31-35.77-1.52-1.03-3.51-1.03-5.03,0-.87.59-21.31,14.62-21.31,35.77,0,3.67.81,9.09,2.39,15.09-3.99-1.8-8.46-2.76-13.26-2.78h-.09c-10.79,0-20.24,6.61-23.54,16.47-4.24,12.67,1.61,26.07,13.6,31.27.61.31,1.29.5,2.02.5,2.49,0,4.5-2.01,4.5-4.5,0-5.07,4.12-9.2,9.19-9.21,2.64,0,5.16,1.15,6.91,3.14.06.07.14.12.2.19,1.26,1.52,2.04,3.44,2.11,5.55,0,.11-.03.22-.03.34s.03.22.03.34c-.18,4.92-4.23,8.88-9.2,8.88-2.49,0-4.5,2.01-4.5,4.5s2.01,4.5,4.5,4.5c8.49,0,15.62-5.84,17.63-13.71h22.79c2.01,7.87,9.14,13.71,17.63,13.71,2.49,0,4.5-2.01,4.5-4.5s-2.01-4.5-4.5-4.5c-5.08,0-9.21-4.13-9.21-9.21s4.13-9.18,9.21-9.21c18.68-.12,11.97,24.08,11.97,24.08l-6.29,19.28c-.6,1.86.05,3.89,1.63,5.04s3.72,1.15,5.29,0l36.62-26.67,36.62,26.67c.79.58,1.72.86,2.65.86s1.86-.29,2.65-.86c1.58-1.15,2.24-3.18,1.63-5.04l-14.05-43.06,36.68-26.58c1.58-1.15,2.24-3.18,1.64-5.03ZM126.51,119.34c-8.49,0-15.62,5.84-17.63,13.71h-22.79c-2.01-7.87-9.14-13.71-17.63-13.71,0,0-.02,0-.03,0,0,0-.02,0-.02,0-.58,0-1.15.04-1.71.09-.09,0-.18.02-.27.03-.53.06-1.06.14-1.58.24-.03,0-.07.01-.1.02-5.85,1.2-10.7,5.21-13.04,10.56-4.13-3.87-6.43-10.05-4.05-17.14,2.07-6.18,8.09-10.32,15.01-10.32h.06c9.3.03,16.57,4.74,20.49,13.25.95,2.07,3.24,3.3,5.43,2.66,2.57-.75,3.88-3.5,2.96-5.93-.59-1.55-1.13-2.83-1.69-4.03-5.03-10.72-7.29-22.39-7.29-27.26,0-12.46,10.02-22.33,14.82-26.35,4.81,4.02,14.83,13.89,14.83,26.35,0,4.87-2.26,16.54-7.29,27.26-.54,1.15-1.06,2.38-1.62,3.84-.83,2.15-.04,4.68,1.99,5.76,2.33,1.25,5.17.24,6.24-2.11,3.9-8.63,11.21-13.4,20.58-13.44,6.99-.03,13.14,4.19,15.04,10.25,1.74,5.51.48,10.96.27,11.75l-.2.56s-.03.1-.05.15l-1.2,3.68c-.49,1.51-2.55,1.64-3.27.21-2.99-5.97-9.16-10.07-16.28-10.07Z"/>
  </g>
  <g>
    <path class="cls-1" d="M289.16,101.64c-2.76-1.21-4.93-2.92-6.51-5.14-1.58-2.22-2.37-4.81-2.37-7.77h9.03c.2,2.22,1.07,4.05,2.63,5.48,1.55,1.43,3.74,2.15,6.55,2.15s5.18-.7,6.81-2.11c1.63-1.41,2.44-3.22,2.44-5.44,0-1.73-.51-3.13-1.52-4.22-1.01-1.08-2.27-1.92-3.77-2.52-1.51-.59-3.59-1.23-6.25-1.92-3.36-.89-6.08-1.79-8.18-2.7-2.1-.91-3.88-2.33-5.36-4.25s-2.22-4.49-2.22-7.7c0-2.96.74-5.55,2.22-7.77s3.55-3.92,6.22-5.11c2.66-1.18,5.75-1.78,9.25-1.78,4.98,0,9.06,1.25,12.25,3.74,3.18,2.49,4.95,5.91,5.29,10.25h-9.32c-.15-1.87-1.04-3.48-2.66-4.81-1.63-1.33-3.77-2-6.44-2-2.42,0-4.39.62-5.92,1.85-1.53,1.23-2.29,3.01-2.29,5.33,0,1.58.48,2.88,1.44,3.88.96,1.01,2.18,1.81,3.66,2.41s3.5,1.23,6.07,1.92c3.4.94,6.18,1.88,8.32,2.81,2.15.94,3.97,2.38,5.48,4.33,1.5,1.95,2.26,4.55,2.26,7.81,0,2.62-.7,5.08-2.11,7.4-1.41,2.32-3.45,4.18-6.14,5.59-2.69,1.41-5.86,2.11-9.51,2.11-3.45,0-6.56-.6-9.32-1.81Z"/>
    <path class="cls-1" d="M324.13,71.44c1.7-3.18,4.06-5.64,7.07-7.36,3.01-1.73,6.46-2.59,10.36-2.59,4.93,0,9.02,1.17,12.25,3.52,3.23,2.34,5.41,5.69,6.55,10.03h-9.1c-.74-2.02-1.92-3.6-3.55-4.74s-3.68-1.7-6.14-1.7c-3.45,0-6.2,1.22-8.25,3.66-2.05,2.44-3.07,5.86-3.07,10.25s1.02,7.82,3.07,10.29c2.05,2.47,4.8,3.7,8.25,3.7,4.88,0,8.11-2.15,9.69-6.44h9.1c-1.18,4.14-3.4,7.44-6.66,9.88s-7.3,3.66-12.14,3.66c-3.9,0-7.35-.88-10.36-2.63-3.01-1.75-5.36-4.22-7.07-7.4-1.7-3.18-2.55-6.87-2.55-11.06s.85-7.88,2.55-11.06Z"/>
    <path class="cls-1" d="M374.34,100.97c-3.11-1.75-5.55-4.22-7.33-7.4-1.78-3.18-2.66-6.87-2.66-11.06s.91-7.82,2.74-11.03c1.83-3.21,4.32-5.67,7.47-7.4,3.16-1.73,6.68-2.59,10.58-2.59s7.42.86,10.58,2.59c3.16,1.73,5.65,4.19,7.47,7.4,1.82,3.21,2.74,6.88,2.74,11.03s-.94,7.82-2.81,11.03c-1.88,3.21-4.43,5.69-7.66,7.44-3.23,1.75-6.8,2.63-10.69,2.63s-7.33-.88-10.43-2.63ZM390.88,94.72c1.9-1.04,3.44-2.59,4.62-4.66,1.18-2.07,1.78-4.59,1.78-7.55s-.57-5.46-1.7-7.51c-1.14-2.05-2.64-3.59-4.51-4.62-1.88-1.04-3.9-1.55-6.07-1.55s-4.18.52-6.03,1.55c-1.85,1.04-3.32,2.58-4.4,4.62-1.09,2.05-1.63,4.55-1.63,7.51,0,4.39,1.12,7.78,3.37,10.17,2.24,2.39,5.07,3.59,8.47,3.59,2.17,0,4.21-.52,6.1-1.55Z"/>
    <path class="cls-1" d="M449.51,62.16v40.77h-8.44v-4.81c-1.33,1.68-3.07,3-5.22,3.96-2.15.96-4.43,1.44-6.85,1.44-3.21,0-6.08-.67-8.62-2-2.54-1.33-4.54-3.3-5.99-5.92-1.46-2.61-2.18-5.77-2.18-9.47v-23.98h8.36v22.72c0,3.65.91,6.45,2.74,8.4,1.82,1.95,4.32,2.92,7.47,2.92s5.66-.97,7.51-2.92c1.85-1.95,2.78-4.75,2.78-8.4v-22.72h8.44Z"/>
    <path class="cls-1" d="M468.45,69.04v22.57c0,1.53.36,2.63,1.07,3.29.71.67,1.94,1,3.66,1h5.18v7.03h-6.66c-3.8,0-6.71-.89-8.73-2.66-2.02-1.78-3.03-4.66-3.03-8.66v-22.57h-4.81v-6.88h4.81v-10.14h8.51v10.14h9.92v6.88h-9.92Z"/>
    <path class="cls-1" d="M549.7,51.5l-19.31,51.43h-9.77l-19.39-51.43h9.03l15.24,42.77,15.32-42.77h8.88Z"/>
    <path class="cls-1" d="M571.43,101.75c-2.59,1.28-5.39,1.92-8.4,1.92-2.62,0-4.98-.53-7.1-1.59-2.12-1.06-3.77-2.52-4.96-4.37-1.18-1.85-1.78-3.93-1.78-6.25,0-3.75,1.37-6.86,4.11-9.32,2.74-2.47,6.85-3.7,12.32-3.7h11.54c-.1-2.91-.97-5.25-2.63-7.03-1.65-1.78-3.86-2.66-6.62-2.66-2.52,0-4.6.69-6.25,2.07-1.65,1.38-2.7,3.31-3.15,5.77h-8.29c.59-4.49,2.5-8.14,5.73-10.95,3.23-2.81,7.34-4.22,12.32-4.22,3.26,0,6.2.7,8.84,2.11,2.64,1.41,4.74,3.44,6.29,6.11s2.33,5.8,2.33,9.4v23.9h-8.58v-5.92c-1.23,1.88-3.14,3.45-5.74,4.74ZM570.54,95.05c1.9-.81,3.48-2.05,4.74-3.7,1.26-1.65,1.89-3.66,1.89-6.03v-.07h-11.54c-2.66,0-4.62.52-5.88,1.55s-1.89,2.37-1.89,4,.62,3.01,1.85,4c1.23.99,2.93,1.48,5.11,1.48,1.92,0,3.84-.41,5.74-1.22Z"/>
    <path class="cls-1" d="M603.18,48.17v54.76h-8.44v-54.76h8.44Z"/>
    <path class="cls-1" d="M632.33,101.75c-2.59,1.28-5.39,1.92-8.4,1.92-2.62,0-4.98-.53-7.1-1.59-2.12-1.06-3.77-2.52-4.96-4.37-1.18-1.85-1.78-3.93-1.78-6.25,0-3.75,1.37-6.86,4.11-9.32,2.74-2.47,6.85-3.7,12.32-3.7h11.54c-.1-2.91-.97-5.25-2.63-7.03-1.65-1.78-3.86-2.66-6.62-2.66-2.52,0-4.6.69-6.25,2.07-1.65,1.38-2.7,3.31-3.15,5.77h-8.29c.59-4.49,2.5-8.14,5.73-10.95,3.23-2.81,7.34-4.22,12.32-4.22,3.26,0,6.2.7,8.84,2.11,2.64,1.41,4.74,3.44,6.29,6.11s2.33,5.8,2.33,9.4v23.9h-8.58v-5.92c-1.23,1.88-3.14,3.45-5.74,4.74ZM631.44,95.05c1.9-.81,3.48-2.05,4.74-3.7,1.26-1.65,1.89-3.66,1.89-6.03v-.07h-11.54c-2.66,0-4.62.52-5.88,1.55s-1.89,2.37-1.89,4,.62,3.01,1.85,4c1.23.99,2.93,1.48,5.11,1.48,1.92,0,3.84-.41,5.74-1.22Z"/>
    <path class="cls-1" d="M655.88,55.2c-1.04-1.04-1.55-2.32-1.55-3.85s.52-2.81,1.55-3.85,2.32-1.55,3.85-1.55,2.74.52,3.77,1.55,1.55,2.32,1.55,3.85-.52,2.81-1.55,3.85c-1.04,1.04-2.29,1.55-3.77,1.55s-2.81-.52-3.85-1.55ZM663.87,62.16v40.77h-8.44v-40.77h8.44Z"/>
    <path class="cls-1" d="M679.14,101.86c-2.54-1.16-4.55-2.74-6.03-4.74-1.48-2-2.27-4.23-2.37-6.7h8.73c.15,1.73.97,3.17,2.48,4.33,1.5,1.16,3.39,1.74,5.66,1.74s4.21-.46,5.51-1.37c1.31-.91,1.96-2.08,1.96-3.52,0-1.53-.73-2.66-2.18-3.4-1.46-.74-3.76-1.55-6.92-2.44-3.06-.84-5.55-1.65-7.47-2.44-1.92-.79-3.59-2-4.99-3.63-1.41-1.63-2.11-3.77-2.11-6.44,0-2.17.64-4.16,1.92-5.96,1.28-1.8,3.12-3.22,5.51-4.25s5.14-1.55,8.25-1.55c4.64,0,8.37,1.17,11.21,3.52,2.84,2.34,4.35,5.54,4.55,9.58h-8.44c-.15-1.83-.89-3.28-2.22-4.37-1.33-1.08-3.13-1.63-5.4-1.63s-3.92.42-5.11,1.26c-1.18.84-1.78,1.95-1.78,3.33,0,1.09.39,2,1.18,2.74.79.74,1.75,1.32,2.89,1.74,1.13.42,2.81.95,5.03,1.59,2.96.79,5.39,1.59,7.29,2.4,1.9.81,3.54,2.01,4.92,3.59,1.38,1.58,2.1,3.67,2.15,6.29,0,2.32-.64,4.39-1.92,6.22-1.28,1.83-3.1,3.26-5.44,4.29-2.34,1.04-5.09,1.55-8.25,1.55s-6.08-.58-8.62-1.74Z"/>
  </g>
  <g>
    <path class="cls-1" d="M315.66,145.19c-1.23,2.32-3.21,4.21-5.92,5.66-2.71,1.46-6.19,2.18-10.43,2.18h-9.32v20.87h-8.44v-51.43h17.76c3.95,0,7.29.68,10.03,2.04,2.74,1.36,4.78,3.19,6.14,5.51,1.36,2.32,2.04,4.91,2.04,7.77,0,2.62-.62,5.08-1.85,7.4ZM306.48,143.97c1.58-1.46,2.37-3.52,2.37-6.18,0-5.62-3.18-8.44-9.55-8.44h-9.32v16.8h9.32c3.21,0,5.6-.73,7.18-2.18Z"/>
    <path class="cls-1" d="M342.1,140.01h-7.55v33.89h-8.51v-33.89h-4.81v-6.88h4.81v-2.89c0-4.69,1.25-8.1,3.74-10.25,2.49-2.15,6.4-3.22,11.73-3.22v7.03c-2.57,0-4.37.48-5.4,1.44-1.04.96-1.55,2.63-1.55,4.99v2.89h7.55v6.88Z"/>
    <path class="cls-1" d="M366.6,172.72c-2.59,1.28-5.39,1.92-8.4,1.92-2.62,0-4.98-.53-7.1-1.59-2.12-1.06-3.77-2.52-4.96-4.37s-1.78-3.93-1.78-6.25c0-3.75,1.37-6.86,4.11-9.32,2.74-2.47,6.84-3.7,12.32-3.7h11.54c-.1-2.91-.97-5.25-2.63-7.03-1.65-1.78-3.86-2.66-6.62-2.66-2.52,0-4.6.69-6.25,2.07-1.65,1.38-2.7,3.31-3.15,5.77h-8.29c.59-4.49,2.5-8.14,5.73-10.95,3.23-2.81,7.34-4.22,12.32-4.22,3.26,0,6.2.7,8.84,2.11,2.64,1.41,4.74,3.44,6.29,6.1,1.55,2.66,2.33,5.8,2.33,9.4v23.9h-8.58v-5.92c-1.23,1.88-3.15,3.45-5.73,4.74ZM365.72,166.02c1.9-.81,3.48-2.05,4.74-3.7,1.26-1.65,1.89-3.66,1.89-6.03v-.07h-11.54c-2.66,0-4.62.52-5.88,1.55-1.26,1.04-1.89,2.37-1.89,4s.62,3.01,1.85,4c1.23.99,2.93,1.48,5.11,1.48,1.92,0,3.84-.41,5.73-1.22Z"/>
    <path class="cls-1" d="M389.83,142.45c1.7-3.16,4.02-5.61,6.96-7.36,2.93-1.75,6.2-2.63,9.8-2.63,2.66,0,5.29.58,7.88,1.74,2.59,1.16,4.65,2.7,6.18,4.62v-19.68h8.51v54.76h-8.51v-6.14c-1.38,1.97-3.29,3.6-5.74,4.88s-5.24,1.92-8.4,1.92c-3.55,0-6.8-.9-9.73-2.7-2.94-1.8-5.25-4.32-6.96-7.55-1.7-3.23-2.55-6.89-2.55-10.99s.85-7.72,2.55-10.88ZM418.91,146.15c-1.16-2.07-2.68-3.65-4.55-4.74-1.88-1.08-3.9-1.63-6.07-1.63s-4.19.53-6.07,1.59c-1.88,1.06-3.39,2.62-4.55,4.66s-1.74,4.48-1.74,7.29.58,5.28,1.74,7.4c1.16,2.12,2.69,3.74,4.59,4.85,1.9,1.11,3.91,1.67,6.03,1.67s4.19-.54,6.07-1.63c1.87-1.08,3.39-2.67,4.55-4.77,1.16-2.1,1.74-4.55,1.74-7.36s-.58-5.25-1.74-7.33Z"/>
    <path class="cls-1" d="M438.82,126.17c-1.04-1.04-1.55-2.32-1.55-3.85s.52-2.81,1.55-3.85,2.32-1.55,3.85-1.55,2.74.52,3.77,1.55,1.55,2.32,1.55,3.85-.52,2.81-1.55,3.85-2.29,1.55-3.77,1.55-2.81-.52-3.85-1.55ZM446.81,133.13v40.77h-8.44v-40.77h8.44Z"/>
    <path class="cls-1" d="M544.12,122.47l-15.24,51.43h-9.55l-10.8-38.92-11.47,38.92-9.47.07-14.58-51.5h8.95l10.66,41.88,11.54-41.88h9.47l10.73,41.66,10.73-41.66h9.03Z"/>
    <path class="cls-1" d="M567.15,172.72c-2.59,1.28-5.39,1.92-8.4,1.92-2.62,0-4.98-.53-7.1-1.59s-3.77-2.52-4.96-4.37c-1.18-1.85-1.78-3.93-1.78-6.25,0-3.75,1.37-6.86,4.11-9.32,2.74-2.47,6.85-3.7,12.32-3.7h11.54c-.1-2.91-.97-5.25-2.63-7.03-1.65-1.78-3.86-2.66-6.62-2.66-2.52,0-4.6.69-6.25,2.07-1.65,1.38-2.7,3.31-3.15,5.77h-8.29c.59-4.49,2.5-8.14,5.73-10.95,3.23-2.81,7.34-4.22,12.32-4.22,3.26,0,6.2.7,8.84,2.11,2.64,1.41,4.74,3.44,6.29,6.1s2.33,5.8,2.33,9.4v23.9h-8.58v-5.92c-1.23,1.88-3.14,3.45-5.74,4.74ZM566.26,166.02c1.9-.81,3.48-2.05,4.74-3.7,1.26-1.65,1.89-3.66,1.89-6.03v-.07h-11.54c-2.66,0-4.62.52-5.88,1.55s-1.89,2.37-1.89,4,.62,3.01,1.85,4c1.23.99,2.93,1.48,5.11,1.48,1.92,0,3.84-.41,5.74-1.22Z"/>
    <path class="cls-1" d="M598.89,119.14v54.76h-8.44v-54.76h8.44Z"/>
    <path class="cls-1" d="M616.5,119.14v54.76h-8.44v-54.76h8.44Z"/>
    <path class="cls-1" d="M626.21,126.17c-1.04-1.04-1.55-2.32-1.55-3.85s.52-2.81,1.55-3.85,2.32-1.55,3.85-1.55,2.74.52,3.77,1.55,1.55,2.32,1.55,3.85-.52,2.81-1.55,3.85-2.29,1.55-3.77,1.55-2.81-.52-3.85-1.55ZM634.2,133.13v40.77h-8.44v-40.77h8.44Z"/>
    <path class="cls-1" d="M649.48,172.83c-2.54-1.16-4.55-2.74-6.03-4.74-1.48-2-2.27-4.23-2.37-6.7h8.73c.15,1.73.97,3.17,2.48,4.33,1.5,1.16,3.39,1.74,5.66,1.74s4.21-.46,5.51-1.37c1.31-.91,1.96-2.08,1.96-3.51,0-1.53-.73-2.66-2.18-3.4-1.46-.74-3.76-1.55-6.92-2.44-3.06-.84-5.55-1.65-7.47-2.44-1.92-.79-3.59-2-4.99-3.63-1.41-1.63-2.11-3.77-2.11-6.44,0-2.17.64-4.16,1.92-5.96,1.28-1.8,3.12-3.22,5.51-4.25s5.14-1.55,8.25-1.55c4.64,0,8.37,1.17,11.21,3.51,2.84,2.34,4.35,5.54,4.55,9.58h-8.44c-.15-1.82-.89-3.28-2.22-4.37-1.33-1.08-3.13-1.63-5.4-1.63s-3.92.42-5.11,1.26c-1.18.84-1.78,1.95-1.78,3.33,0,1.09.39,2,1.18,2.74.79.74,1.75,1.32,2.89,1.74,1.13.42,2.81.95,5.03,1.59,2.96.79,5.39,1.59,7.29,2.41,1.9.81,3.54,2.01,4.92,3.59,1.38,1.58,2.1,3.68,2.15,6.29,0,2.32-.64,4.39-1.92,6.22-1.28,1.83-3.1,3.26-5.44,4.29-2.34,1.04-5.09,1.55-8.25,1.55s-6.08-.58-8.62-1.74Z"/>
  </g>
</svg>
