<svg aria-hidden="true" style="position: absolute; width: 0; height: 0; overflow: hidden;" version="1.1" xmlns="http://www.w3.org/2000/svg">
    <defs>
        <symbol id="icon-plus" xmlns="http://www.w3.org/2000/svg" fill="none" viewBox="0 0 24 24" stroke-width="1.5" stroke="currentColor">
            <path stroke-linecap="round" stroke-linejoin="round" d="M12 4.5v15m7.5-7.5h-15"/>
        </symbol>
        <symbol id="icon-back" xmlns="http://www.w3.org/2000/svg" fill="none" viewBox="0 0 24 24" stroke-width="1.5" stroke="currentColor">
            <path stroke-linecap="round" stroke-linejoin="round" d="M10.5 19.5 3 12m0 0 7.5-7.5M3 12h18" />
        </symbol>
        <symbol  id="icon-warning" viewBox="0 0 19 16" fill="currentColor" xmlns="http://www.w3.org/2000/svg">
            <path d="M1.50493 16H17.5023C18.6204 16 19.3413 14.9018 18.8354 13.9735L10.8367 0.770573C10.2852 -0.256858 8.70677 -0.256858 8.15528 0.770573L0.156617 13.9735C-0.334072 14.8998 0.386764 16 1.50493 16ZM10.7585 12.9298C10.7585 13.6155 10.2223 14.1433 9.45583 14.1433C8.6894 14.1433 8.15311 13.6155 8.15311 12.9298V12.9015C8.15311 12.2159 8.6894 11.688 9.45583 11.688C10.2223 11.688 10.7585 12.2159 10.7585 12.9015V12.9298ZM8.75236 4.01062H10.2548C10.6674 4.01062 10.9127 4.33826 10.8671 4.75288L10.2071 10.1186C10.1615 10.5049 9.88572 10.7455 9.50142 10.7455C9.11929 10.7455 8.84138 10.5028 8.79579 10.1186L8.13574 4.75288C8.09449 4.33826 8.33984 4.01062 8.75236 4.01062Z"/>
        </symbol>
        <symbol id="icon-danger" viewBox="0 0 13 13" fill="currentColor" xmlns="http://www.w3.org/2000/svg">
            <path d="M6.4917 7.65579L11.106 12.2645C11.2545 12.4128 11.4715 12.5 11.6738 12.5C11.8762 12.5 12.0931 12.4128 12.2416 12.2645C12.5621 11.9445 12.5623 11.4317 12.2423 11.1114C12.2422 11.1113 12.2422 11.1113 12.2422 11.1113C12.242 11.1111 12.2418 11.1109 12.2416 11.1107L7.64539 6.50351L12.2589 1.91221L12.2595 1.91158C12.5802 1.59132 12.5802 1.07805 12.2595 0.757793C11.9393 0.437994 11.4268 0.437869 11.1064 0.757418C11.1063 0.757543 11.1062 0.757668 11.106 0.757793L6.49234 5.34931L1.89459 0.740581L1.89396 0.739942C1.57364 0.420019 1.0608 0.420019 0.740487 0.739944C0.42005 1.05999 0.419837 1.57279 0.73985 1.89309L6.4917 7.65579ZM6.4917 7.65579L1.89459 12.2639L1.89395 12.2645C1.74546 12.4128 1.52854 12.5 1.32616 12.5C1.12377 12.5 0.906853 12.4128 0.758361 12.2645L1.1117 11.9108L0.758358 12.2645C0.437984 11.9445 0.437708 11.4319 0.757539 11.1116C0.757812 11.1113 0.758086 11.111 0.75836 11.1107L5.33864 6.50287L0.740487 1.89373L6.4917 7.65579Z"/>
        </symbol>
        <symbol id="icon-success" viewBox="0 0 16 12" fill="currentColor" xmlns="http://www.w3.org/2000/svg">
            <path d="M15.2984 0.826822L15.2868 0.811827L15.2741 0.797751C14.9173 0.401867 14.3238 0.400754 13.9657 0.794406L5.91888 9.45376L2.05667 5.2868C1.69856 4.89287 1.10487 4.89389 0.747996 5.28987C0.417335 5.65675 0.417335 6.22337 0.747996 6.59026L0.747959 6.59029L0.752701 6.59541L4.86742 11.0348C5.14445 11.3405 5.52858 11.5 5.89581 11.5C6.29242 11.5 6.65178 11.3355 6.92401 11.035L15.2162 2.11161C15.5833 1.74452 15.576 1.18615 15.2984 0.826822Z"
            />
        </symbol>
        <symbol id="icon-lock" fill="currentColor" viewBox="0 0 22 22" xmlns="http://www.w3.org/2000/svg">
            <g>
                <path d="M16.1547 6.80626V5.91251C16.1547 3.16251 14.0922 0.825009 11.4797 0.618759C10.0359 0.481259 8.59219 0.996884 7.52656 1.95938C6.46094 2.92188 5.84219 4.29688 5.84219 5.70626V6.80626C3.84844 7.18438 2.33594 8.93751 2.33594 11.0688V17.2906C2.33594 19.5594 4.19219 21.3813 6.42656 21.3813H15.5016C17.7703 21.3813 19.6266 19.525 19.6266 17.2563V11C19.6609 8.93751 18.1484 7.21876 16.1547 6.80626ZM8.55781 3.09376C9.31406 2.40626 10.3109 2.06251 11.3422 2.16563C13.1641 2.33751 14.6078 3.98751 14.6078 5.91251V6.70313H7.38906V5.67188C7.38906 4.70938 7.80156 3.78126 8.55781 3.09376ZM18.1141 17.2906C18.1141 18.7 16.9453 19.8688 15.5359 19.8688H6.46094C5.05156 19.8688 3.91719 18.7344 3.91719 17.325V11.0688C3.91719 9.52189 5.15469 8.28438 6.70156 8.28438H15.2953C16.8422 8.28438 18.1141 9.52188 18.1141 11V17.2906Z"/>
                <path d="M10.9977 11.8594C10.5852 11.8594 10.207 12.2031 10.207 12.65V16.2594C10.207 16.6719 10.5508 17.05 10.9977 17.05C11.4102 17.05 11.7883 16.7063 11.7883 16.2594V12.6156C11.7883 12.2031 11.4102 11.8594 10.9977 11.8594Z"/>
            </g>
        </symbol>
        <symbol id="icon-user" viewBox="0 0 22 22" fill="currentColor" xmlns="http://www.w3.org/2000/svg">
            <g>
                <path
                        d="M11.0008 9.52185C13.5445 9.52185 15.607 7.5281 15.607 5.0531C15.607 2.5781 13.5445 0.584351 11.0008 0.584351C8.45703 0.584351 6.39453 2.5781 6.39453 5.0531C6.39453 7.5281 8.45703 9.52185 11.0008 9.52185ZM11.0008 2.1656C12.6852 2.1656 14.0602 3.47185 14.0602 5.08748C14.0602 6.7031 12.6852 8.00935 11.0008 8.00935C9.31641 8.00935 7.94141 6.7031 7.94141 5.08748C7.94141 3.47185 9.31641 2.1656 11.0008 2.1656Z"
                />
                <path
                        d="M13.2352 11.0687H8.76641C5.08828 11.0687 2.09766 14.0937 2.09766 17.7719V20.625C2.09766 21.0375 2.44141 21.4156 2.88828 21.4156C3.33516 21.4156 3.67891 21.0719 3.67891 20.625V17.7719C3.67891 14.9531 5.98203 12.6156 8.83516 12.6156H13.2695C16.0883 12.6156 18.4258 14.9187 18.4258 17.7719V20.625C18.4258 21.0375 18.7695 21.4156 19.2164 21.4156C19.6633 21.4156 20.007 21.0719 20.007 20.625V17.7719C19.9039 14.0937 16.9133 11.0687 13.2352 11.0687Z"
                />
            </g>
        </symbol>
        <symbol id="icon-pencil" xmlns="http://www.w3.org/2000/svg" fill="none" viewBox="0 0 24 24" stroke-width="1.5" stroke="currentColor">
            <path stroke-linecap="round" stroke-linejoin="round" d="m16.862 4.487 1.687-1.688a1.875 1.875 0 1 1 2.652 2.652L10.582 16.07a4.5 4.5 0 0 1-1.897 1.13L6 18l.8-2.685a4.5 4.5 0 0 1 1.13-1.897l8.932-8.931Zm0 0L19.5 7.125M18 14v4.75A2.25 2.25 0 0 1 15.75 21H5.25A2.25 2.25 0 0 1 3 18.75V8.25A2.25 2.25 0 0 1 5.25 6H10" />
        </symbol>
        <symbol id="icon-eye" xmlns="http://www.w3.org/2000/svg" fill="none" viewBox="0 0 24 24" stroke-width="1.5" stroke="currentColor">
            <path stroke-linecap="round" stroke-linejoin="round" d="M2.036 12.322a1.012 1.012 0 0 1 0-.639C3.423 7.51 7.36 4.5 12 4.5c4.638 0 8.573 3.007 9.963 7.178.07.207.07.431 0 .639C20.577 16.49 16.64 19.5 12 19.5c-4.638 0-8.573-3.007-9.963-7.178Z" />
            <path stroke-linecap="round" stroke-linejoin="round" d="M15 12a3 3 0 1 1-6 0 3 3 0 0 1 6 0Z" />
        </symbol>
        <symbol id="icon-eye-slash" xmlns="http://www.w3.org/2000/svg" fill="none" viewBox="0 0 24 24" stroke-width="1.5" stroke="currentColor">
            <path stroke-linecap="round" stroke-linejoin="round" d="M3.98 8.223A10.477 10.477 0 0 0 1.934 12C3.226 16.338 7.244 19.5 12 19.5c.993 0 1.953-.138 2.863-.395M6.228 6.228A10.451 10.451 0 0 1 12 4.5c4.756 0 8.773 3.162 10.065 7.498a10.522 10.522 0 0 1-4.293 5.774M6.228 6.228 3 3m3.228 3.228 3.65 3.65m7.894 7.894L21 21m-3.228-3.228-3.65-3.65m0 0a3 3 0 1 0-4.243-4.243m4.242 4.242L9.88 9.88" />
        </symbol>

        <symbol id="icon-trash" viewBox="0 0 18 18" fill="currentColor" xmlns="http://www.w3.org/2000/svg">
            <path
                    d="M13.7535 2.47502H11.5879V1.9969C11.5879 1.15315 10.9129 0.478149 10.0691 0.478149H7.90352C7.05977 0.478149 6.38477 1.15315 6.38477 1.9969V2.47502H4.21914C3.40352 2.47502 2.72852 3.15002 2.72852 3.96565V4.8094C2.72852 5.42815 3.09414 5.9344 3.62852 6.1594L4.07852 15.4688C4.13477 16.6219 5.09102 17.5219 6.24414 17.5219H11.7004C12.8535 17.5219 13.8098 16.6219 13.866 15.4688L14.3441 6.13127C14.8785 5.90627 15.2441 5.3719 15.2441 4.78127V3.93752C15.2441 3.15002 14.5691 2.47502 13.7535 2.47502ZM7.67852 1.9969C7.67852 1.85627 7.79102 1.74377 7.93164 1.74377H10.0973C10.2379 1.74377 10.3504 1.85627 10.3504 1.9969V2.47502H7.70664V1.9969H7.67852ZM4.02227 3.96565C4.02227 3.85315 4.10664 3.74065 4.24727 3.74065H13.7535C13.866 3.74065 13.9785 3.82502 13.9785 3.96565V4.8094C13.9785 4.9219 13.8941 5.0344 13.7535 5.0344H4.24727C4.13477 5.0344 4.02227 4.95002 4.02227 4.8094V3.96565ZM11.7285 16.2563H6.27227C5.79414 16.2563 5.40039 15.8906 5.37227 15.3844L4.95039 6.2719H13.0785L12.6566 15.3844C12.6004 15.8625 12.2066 16.2563 11.7285 16.2563Z"
            />
            <path
                    d="M9.00039 9.11255C8.66289 9.11255 8.35352 9.3938 8.35352 9.75942V13.3313C8.35352 13.6688 8.63477 13.9782 9.00039 13.9782C9.33789 13.9782 9.64727 13.6969 9.64727 13.3313V9.75942C9.64727 9.3938 9.33789 9.11255 9.00039 9.11255Z"
            />
            <path
                    d="M11.2502 9.67504C10.8846 9.64692 10.6033 9.90004 10.5752 10.2657L10.4064 12.7407C10.3783 13.0782 10.6314 13.3875 10.9971 13.4157C11.0252 13.4157 11.0252 13.4157 11.0533 13.4157C11.3908 13.4157 11.6721 13.1625 11.6721 12.825L11.8408 10.35C11.8408 9.98442 11.5877 9.70317 11.2502 9.67504Z"
            />
            <path
                    d="M6.72245 9.67504C6.38495 9.70317 6.1037 10.0125 6.13182 10.35L6.3287 12.825C6.35683 13.1625 6.63808 13.4157 6.94745 13.4157C6.97558 13.4157 6.97558 13.4157 7.0037 13.4157C7.3412 13.3875 7.62245 13.0782 7.59433 12.7407L7.39745 10.2657C7.39745 9.90004 7.08808 9.64692 6.72245 9.67504Z"
            />
        </symbol>
        <symbol id="icon-calendar" viewBox="0 0 18 18" fill="currentColor" xmlns="http://www.w3.org/2000/svg">
            <path
                    d="M15.7499 2.9812H14.2874V2.36245C14.2874 2.02495 14.0062 1.71558 13.6405 1.71558C13.2749 1.71558 12.9937 1.99683 12.9937 2.36245V2.9812H4.97803V2.36245C4.97803 2.02495 4.69678 1.71558 4.33115 1.71558C3.96553 1.71558 3.68428 1.99683 3.68428 2.36245V2.9812H2.2499C1.29365 2.9812 0.478027 3.7687 0.478027 4.75308V14.5406C0.478027 15.4968 1.26553 16.3125 2.2499 16.3125H15.7499C16.7062 16.3125 17.5218 15.525 17.5218 14.5406V4.72495C17.5218 3.7687 16.7062 2.9812 15.7499 2.9812ZM1.77178 8.21245H4.1624V10.9968H1.77178V8.21245ZM5.42803 8.21245H8.38115V10.9968H5.42803V8.21245ZM8.38115 12.2625V15.0187H5.42803V12.2625H8.38115ZM9.64678 12.2625H12.5999V15.0187H9.64678V12.2625ZM9.64678 10.9968V8.21245H12.5999V10.9968H9.64678ZM13.8374 8.21245H16.228V10.9968H13.8374V8.21245ZM2.2499 4.24683H3.7124V4.83745C3.7124 5.17495 3.99365 5.48433 4.35928 5.48433C4.7249 5.48433 5.00615 5.20308 5.00615 4.83745V4.24683H13.0499V4.83745C13.0499 5.17495 13.3312 5.48433 13.6968 5.48433C14.0624 5.48433 14.3437 5.20308 14.3437 4.83745V4.24683H15.7499C16.0312 4.24683 16.2562 4.47183 16.2562 4.75308V6.94683H1.77178V4.75308C1.77178 4.47183 1.96865 4.24683 2.2499 4.24683ZM1.77178 14.5125V12.2343H4.1624V14.9906H2.2499C1.96865 15.0187 1.77178 14.7937 1.77178 14.5125ZM15.7499 15.0187H13.8374V12.2625H16.228V14.5406C16.2562 14.7937 16.0312 15.0187 15.7499 15.0187Z"
            />
        </symbol>
        <symbol id="icon-dashboard" viewBox="0 0 18 18" fill="currentColor" xmlns="http://www.w3.org/2000/svg"
        >
            <path
                    d="M6.10322 0.956299H2.53135C1.5751 0.956299 0.787598 1.7438 0.787598 2.70005V6.27192C0.787598 7.22817 1.5751 8.01567 2.53135 8.01567H6.10322C7.05947 8.01567 7.84697 7.22817 7.84697 6.27192V2.72817C7.8751 1.7438 7.0876 0.956299 6.10322 0.956299ZM6.60947 6.30005C6.60947 6.5813 6.38447 6.8063 6.10322 6.8063H2.53135C2.2501 6.8063 2.0251 6.5813 2.0251 6.30005V2.72817C2.0251 2.44692 2.2501 2.22192 2.53135 2.22192H6.10322C6.38447 2.22192 6.60947 2.44692 6.60947 2.72817V6.30005Z"
            />
            <path
                    d="M15.4689 0.956299H11.8971C10.9408 0.956299 10.1533 1.7438 10.1533 2.70005V6.27192C10.1533 7.22817 10.9408 8.01567 11.8971 8.01567H15.4689C16.4252 8.01567 17.2127 7.22817 17.2127 6.27192V2.72817C17.2127 1.7438 16.4252 0.956299 15.4689 0.956299ZM15.9752 6.30005C15.9752 6.5813 15.7502 6.8063 15.4689 6.8063H11.8971C11.6158 6.8063 11.3908 6.5813 11.3908 6.30005V2.72817C11.3908 2.44692 11.6158 2.22192 11.8971 2.22192H15.4689C15.7502 2.22192 15.9752 2.44692 15.9752 2.72817V6.30005Z"
            />
            <path
                    d="M6.10322 9.92822H2.53135C1.5751 9.92822 0.787598 10.7157 0.787598 11.672V15.2438C0.787598 16.2001 1.5751 16.9876 2.53135 16.9876H6.10322C7.05947 16.9876 7.84697 16.2001 7.84697 15.2438V11.7001C7.8751 10.7157 7.0876 9.92822 6.10322 9.92822ZM6.60947 15.272C6.60947 15.5532 6.38447 15.7782 6.10322 15.7782H2.53135C2.2501 15.7782 2.0251 15.5532 2.0251 15.272V11.7001C2.0251 11.4188 2.2501 11.1938 2.53135 11.1938H6.10322C6.38447 11.1938 6.60947 11.4188 6.60947 11.7001V15.272Z"
            />
            <path
                    d="M15.4689 9.92822H11.8971C10.9408 9.92822 10.1533 10.7157 10.1533 11.672V15.2438C10.1533 16.2001 10.9408 16.9876 11.8971 16.9876H15.4689C16.4252 16.9876 17.2127 16.2001 17.2127 15.2438V11.7001C17.2127 10.7157 16.4252 9.92822 15.4689 9.92822ZM15.9752 15.272C15.9752 15.5532 15.7502 15.7782 15.4689 15.7782H11.8971C11.6158 15.7782 11.3908 15.5532 11.3908 15.272V11.7001C11.3908 11.4188 11.6158 11.1938 11.8971 11.1938H15.4689C15.7502 11.1938 15.9752 11.4188 15.9752 11.7001V15.272Z"
            />
        </symbol>
        <symbol id="icon-question" xmlns="http://www.w3.org/2000/svg" fill="none" viewBox="0 0 24 24" stroke-width="1.5" stroke="currentColor">
            <path stroke-linecap="round" stroke-linejoin="round" d="M9.879 7.519c1.171-1.025 3.071-1.025 4.242 0 1.172 1.025 1.172 2.687 0 3.712-.203.179-.43.326-.67.442-.745.361-1.45.999-1.45 1.827v.75M21 12a9 9 0 1 1-18 0 9 9 0 0 1 18 0Zm-9 5.25h.008v.008H12v-.008Z" />
        </symbol>
        <symbol id="icon-users" xmlns="http://www.w3.org/2000/svg" fill="none" viewBox="0 0 24 24" stroke-width="1.5" stroke="currentColor">
            <path stroke-linecap="round" stroke-linejoin="round" d="M15 19.128a9.38 9.38 0 0 0 2.625.372 9.337 9.337 0 0 0 4.121-.952 4.125 4.125 0 0 0-7.533-2.493M15 19.128v-.003c0-1.113-.285-2.16-.786-3.07M15 19.128v.106A12.318 12.318 0 0 1 8.624 21c-2.331 0-4.512-.645-6.374-1.766l-.001-.109a6.375 6.375 0 0 1 11.964-3.07M12 6.375a3.375 3.375 0 1 1-6.75 0 3.375 3.375 0 0 1 6.75 0Zm8.25 2.25a2.625 2.625 0 1 1-5.25 0 2.625 2.625 0 0 1 5.25 0Z" />
        </symbol>
        <symbol id="icon-chat" xmlns="http://www.w3.org/2000/svg" fill="none" viewBox="0 0 24 24" stroke-width="1.5" stroke="currentColor">
            <path stroke-linecap="round" stroke-linejoin="round" d="M20.25 8.511c.884.284 1.5 1.128 1.5 2.097v4.286c0 1.136-.847 2.1-1.98 2.193-.34.027-.68.052-1.02.072v3.091l-3-3c-1.354 0-2.694-.055-4.02-.163a2.115 2.115 0 0 1-.825-.242m9.345-8.334a2.126 2.126 0 0 0-.476-.095 48.64 48.64 0 0 0-8.048 0c-1.131.094-1.976 1.057-1.976 2.192v4.286c0 .837.46 1.58 1.155 1.951m9.345-8.334V6.637c0-1.621-1.152-3.026-2.76-3.235A48.455 48.455 0 0 0 11.25 3c-2.115 0-4.198.137-6.24.402-1.608.209-2.76 1.614-2.76 3.235v6.226c0 1.621 1.152 3.026 2.76 3.235.577.075 1.157.14 1.74.194V21l4.155-4.155" />
        </symbol>
        <symbol id="icon-flag" xmlns="http://www.w3.org/2000/svg" fill="none" viewBox="0 0 24 24" stroke-width="1.5" stroke="currentColor">
            <path stroke-linecap="round" stroke-linejoin="round" d="M3 3v1.5M3 21v-6m0 0 2.77-.693a9 9 0 0 1 6.208.682l.108.054a9 9 0 0 0 6.086.71l3.114-.732a48.524 48.524 0 0 1-.005-10.499l-3.11.732a9 9 0 0 1-6.085-.711l-.108-.054a9 9 0 0 0-6.208-.682L3 4.5M3 15V4.5" />
        </symbol>
        <symbol id="icon-link" xmlns="http://www.w3.org/2000/svg" fill="none" viewBox="0 0 24 24" stroke-width="1.5" stroke="currentColor">
            <path stroke-linecap="round" stroke-linejoin="round" d="M13.19 8.688a4.5 4.5 0 0 1 1.242 7.244l-4.5 4.5a4.5 4.5 0 0 1-6.364-6.364l1.757-1.757m13.35-.622 1.757-1.757a4.5 4.5 0 0 0-6.364-6.364l-4.5 4.5a4.5 4.5 0 0 0 1.242 7.244" />
        </symbol>
        <symbol id="icon-caret-down" viewBox="0 0 20 20" fill="currentColor" xmlns="http://www.w3.org/2000/svg">
            <path fill-rule="evenodd" clip-rule="evenodd" d="M4.41107 6.9107C4.73651 6.58527 5.26414 6.58527 5.58958 6.9107L10.0003 11.3214L14.4111 6.91071C14.7365 6.58527 15.2641 6.58527 15.5896 6.91071C15.915 7.23614 15.915 7.76378 15.5896 8.08922L10.5896 13.0892C10.2641 13.4147 9.73651 13.4147 9.41107 13.0892L4.41107 8.08922C4.08563 7.76378 4.08563 7.23614 4.41107 6.9107Z"/>
        </symbol>
        <symbol id="icon-sun" viewBox="0 0 16 16" fill="currentColor" xmlns="http://www.w3.org/2000/svg">
            <path d="M7.99992 12.6666C10.5772 12.6666 12.6666 10.5772 12.6666 7.99992C12.6666 5.42259 10.5772 3.33325 7.99992 3.33325C5.42259 3.33325 3.33325 5.42259 3.33325 7.99992C3.33325 10.5772 5.42259 12.6666 7.99992 12.6666Z"/>
            <path d="M8.00008 15.3067C7.63341 15.3067 7.33342 15.0334 7.33342 14.6667V14.6134C7.33342 14.2467 7.63341 13.9467 8.00008 13.9467C8.36675 13.9467 8.66675 14.2467 8.66675 14.6134C8.66675 14.9801 8.36675 15.3067 8.00008 15.3067ZM12.7601 13.4267C12.5867 13.4267 12.4201 13.3601 12.2867 13.2334L12.2001 13.1467C11.9401 12.8867 11.9401 12.4667 12.2001 12.2067C12.4601 11.9467 12.8801 11.9467 13.1401 12.2067L13.2267 12.2934C13.4867 12.5534 13.4867 12.9734 13.2267 13.2334C13.1001 13.3601 12.9334 13.4267 12.7601 13.4267ZM3.24008 13.4267C3.06675 13.4267 2.90008 13.3601 2.76675 13.2334C2.50675 12.9734 2.50675 12.5534 2.76675 12.2934L2.85342 12.2067C3.11342 11.9467 3.53341 11.9467 3.79341 12.2067C4.05341 12.4667 4.05341 12.8867 3.79341 13.1467L3.70675 13.2334C3.58008 13.3601 3.40675 13.4267 3.24008 13.4267ZM14.6667 8.66675H14.6134C14.2467 8.66675 13.9467 8.36675 13.9467 8.00008C13.9467 7.63341 14.2467 7.33342 14.6134 7.33342C14.9801 7.33342 15.3067 7.63341 15.3067 8.00008C15.3067 8.36675 15.0334 8.66675 14.6667 8.66675ZM1.38675 8.66675H1.33341C0.966748 8.66675 0.666748 8.36675 0.666748 8.00008C0.666748 7.63341 0.966748 7.33342 1.33341 7.33342C1.70008 7.33342 2.02675 7.63341 2.02675 8.00008C2.02675 8.36675 1.75341 8.66675 1.38675 8.66675ZM12.6734 3.99341C12.5001 3.99341 12.3334 3.92675 12.2001 3.80008C11.9401 3.54008 11.9401 3.12008 12.2001 2.86008L12.2867 2.77341C12.5467 2.51341 12.9667 2.51341 13.2267 2.77341C13.4867 3.03341 13.4867 3.45341 13.2267 3.71341L13.1401 3.80008C13.0134 3.92675 12.8467 3.99341 12.6734 3.99341ZM3.32675 3.99341C3.15341 3.99341 2.98675 3.92675 2.85342 3.80008L2.76675 3.70675C2.50675 3.44675 2.50675 3.02675 2.76675 2.76675C3.02675 2.50675 3.44675 2.50675 3.70675 2.76675L3.79341 2.85342C4.05341 3.11342 4.05341 3.53341 3.79341 3.79341C3.66675 3.92675 3.49341 3.99341 3.32675 3.99341ZM8.00008 2.02675C7.63341 2.02675 7.33342 1.75341 7.33342 1.38675V1.33341C7.33342 0.966748 7.63341 0.666748 8.00008 0.666748C8.36675 0.666748 8.66675 0.966748 8.66675 1.33341C8.66675 1.70008 8.36675 2.02675 8.00008 2.02675Z"/>
        </symbol>
        <symbol id="icon-moon" viewBox="0 0 16 16" fill="currentColor" xmlns="http://www.w3.org/2000/svg">
            <path d="M14.3533 10.62C14.2466 10.44 13.9466 10.16 13.1999 10.2933C12.7866 10.3667 12.3666 10.4 11.9466 10.38C10.3933 10.3133 8.98659 9.6 8.00659 8.5C7.13993 7.53333 6.60659 6.27333 6.59993 4.91333C6.59993 4.15333 6.74659 3.42 7.04659 2.72666C7.33993 2.05333 7.13326 1.7 6.98659 1.55333C6.83326 1.4 6.47326 1.18666 5.76659 1.48C3.03993 2.62666 1.35326 5.36 1.55326 8.28666C1.75326 11.04 3.68659 13.3933 6.24659 14.28C6.85993 14.4933 7.50659 14.62 8.17326 14.6467C8.27993 14.6533 8.38659 14.66 8.49326 14.66C10.7266 14.66 12.8199 13.6067 14.1399 11.8133C14.5866 11.1933 14.4666 10.8 14.3533 10.62Z"/>
        </symbol>
        <symbol id="icon-logout" viewBox="0 0 22 22" fill="currentColor" xmlns="http://www.w3.org/2000/svg">
            <path d="M15.5375 0.618744H11.6531C10.7594 0.618744 10.0031 1.37499 10.0031 2.26874V4.64062C10.0031 5.05312 10.3469 5.39687 10.7594 5.39687C11.1719 5.39687 11.55 5.05312 11.55 4.64062V2.23437C11.55 2.16562 11.5844 2.13124 11.6531 2.13124H15.5375C16.3625 2.13124 17.0156 2.78437 17.0156 3.60937V18.3562C17.0156 19.1812 16.3625 19.8344 15.5375 19.8344H11.6531C11.5844 19.8344 11.55 19.8 11.55 19.7312V17.3594C11.55 16.9469 11.2062 16.6031 10.7594 16.6031C10.3125 16.6031 10.0031 16.9469 10.0031 17.3594V19.7312C10.0031 20.625 10.7594 21.3812 11.6531 21.3812H15.5375C17.2219 21.3812 18.5625 20.0062 18.5625 18.3562V3.64374C18.5625 1.95937 17.1875 0.618744 15.5375 0.618744Z"/>
            <path d="M6.05001 11.7563H12.2031C12.6156 11.7563 12.9594 11.4125 12.9594 11C12.9594 10.5875 12.6156 10.2438 12.2031 10.2438H6.08439L8.21564 8.07813C8.52501 7.76875 8.52501 7.2875 8.21564 6.97812C7.90626 6.66875 7.42501 6.66875 7.11564 6.97812L3.67814 10.4844C3.36876 10.7938 3.36876 11.275 3.67814 11.5844L7.11564 15.0906C7.25314 15.2281 7.45939 15.3312 7.66564 15.3312C7.87189 15.3312 8.04376 15.2625 8.21564 15.125C8.52501 14.8156 8.52501 14.3344 8.21564 14.025L6.05001 11.7563Z"/>
        </symbol>
    </defs>
</svg>
